<?xml version="1.0" encoding="utf-8"?>
<!-- Generator: Adobe Illustrator 25.4.1, SVG Export Plug-In . SVG Version: 6.00 Build 0)  -->
<svg version="1.1" id="logo" xmlns="http://www.w3.org/2000/svg" xmlns:xlink="http://www.w3.org/1999/xlink" x="0px" y="0px"
	 viewBox="0 0 220 40" style="enable-background:new 0 0 220 40;" xml:space="preserve">
<style type="text/css">
	.st0{fill:#FFFFFF;}
	.st1{fill:url(#sign_00000028292193744059539930000003764612122328708230_);}
</style>
<g id="logo_00000107553754399359322680000007038860083786954399_">
	<g id="title">
		<g>
			<path class="st0" d="M220,20c0,5.4-4.5,9.9-10,10c-5.3,0-9.8-4.5-9.9-10c0-5.4,4.5-10,10-10C215.5,10,220,14.4,220,20z M219,20
				c0-4.9-3.9-8.9-9-9c-4.9,0-8.9,4-9,9c0,4.9,4,8.9,9,8.9C215,29,219,25.1,219,20z"/>
			<path class="st0" d="M210.2,12c4.6,0,7.9,3.4,7.8,8.2c0,4.4-3.6,7.9-8.1,8c-4.4,0-8-3.7-8-8.2C201.9,15.4,205.6,12,210.2,12z
				 M203,19.9c0,3.9,3.1,7,7,7.1c3.8,0.1,6.9-3.2,7-7.1c0.1-3.8-3-7-6.9-7C206.2,12.9,203.1,16,203,19.9z"/>
			<path class="st0" d="M210,26.2c-3.4,0-6.1-2.8-6.1-6.3s2.8-6.2,6.3-6.1c3.4,0,6,2.8,6,6.2C216.2,23.6,213.4,26.2,210,26.2z
				 M210,25.1c2.8,0.1,5.1-2.2,5.2-5c0.1-2.8-2.2-5.1-5-5.2c-2.7-0.1-5.2,2.2-5.2,5C204.8,22.7,207,25,210,25.1z"/>
		</g>
		<g>
			<path class="st0" d="M187.2,11.8c0,0,7.4,0,11,0c0,0.4,0,0.6,0,1c-4,0-12,0-12,0V10h14c0,0,0,3,0,4.6c-2.2,0-4.4,0-6.7,0
				c0,4.5,0,8.9,0,13.4c-0.4,0-0.7,0-1,0c0-4.8,0-9.5,0-14.3c2.2,0,4.4,0,6.7,0c0-0.9,0-2.7,0-2.7l-12-0.1L187.2,11.8z"/>
			<path class="st0" d="M195.4,30h-4.8c0,0,0-10.2,0-15.3c-1.5,0-2.9,0-4.4,0c0-0.4,0-0.7,0-1c1.8,0,3.5,0,5.3,0c0,5,0,15.1,0,15.1
				h2.8l0-12.3l0.5-0.9l0.5,1L195.4,30z"/>
		</g>
		<g>
			<path class="st0" d="M176,30c-5.4,0-9.9-4.6-10-10.1c0-5.3,4.6-9.9,10-9.9c5.4,0,9.9,4.5,10,10C186,25.4,181.4,30,176,30z
				 M176,29c4.9,0,8.9-4,8.9-9c0-4.9-4-8.9-9-9c-4.9,0-8.8,4-8.9,9C167,25,171,29,176,29z"/>
			<path class="st0" d="M176.1,12c4.6,0,8,3.3,8,8.1c0,4.5-3.6,8-8.1,8c-4.4,0-8-3.7-8-8.2C167.9,15.4,171.4,12,176.1,12z M176,13
				c-3.9,0-7,3-7.1,7c0,3.8,3.2,7.1,7.1,7.1c3.8,0,7-3.2,7-7.1C183,16.1,180,13,176,13z"/>
			<path class="st0" d="M182.1,20.1c0,3.5-2.6,6.2-6.2,6.2c-3.4,0-6.2-2.8-6.2-6.2c0-3.4,2.8-6.1,6.2-6.2
				C179.4,13.8,182,16.5,182.1,20.1z M181,20.1c0-2.9-2.2-5.2-5.1-5.2c-2.8-0.1-5.1,2.3-5.2,5.1c0,2.8,2.2,5.1,5.2,5.2
				C178.8,25.2,181,22.9,181,20.1z"/>
		</g>
		<g>
			<path class="st0" d="M156,27.5c1-1.8,1.8-3.4,2.8-5.2c0.4,0.9,0.4,1.5,0,2.3c-0.9,1.6-1.8,3.3-2.7,5.2
				c-2.9-5.5-5.7-10.8-8.6-16.1c-0.1,0-0.2,0-0.2,0c-0.8,5-2.4,15.3-2.4,15.3l2.9,0c0,0,0.6-4.4,1.2-6.2c0.2,0.6,0.6,1.2,0.5,1.7
				c-0.2,1.8-0.8,5.6-0.8,5.6h-5c0,0,2-13.2,3-19.7c0.1,0,0.2,0,0.2-0.1C149.8,15.9,152.9,21.7,156,27.5z"/>
			<path class="st0" d="M163,10c1,6.5,3,20,3,20h-3c0,0-0.6-4-0.9-5.9c-0.4-2.9-0.9-5.8-1.3-8.7c-0.1-0.6,0.2-1.4,0.2-2
				c0.2,0,0.3,0,0.4,0c0.2,1,0.4,2,0.5,3c0.6,3.9,1.9,12.3,1.9,12.3h0.9c0,0-0.8-5.6-1.2-8.4c-0.4-2.9-1.4-8.7-1.4-8.7l-0.4-0.7
				l-0.7,0.6c0,0-3,5.7-4.6,8.5c-0.2,0.3-0.4,0.6-0.5,0.9c-0.6-0.6-0.6-1-0.2-1.7c1.4-2.6,2.8-5.1,4.1-7.8
				C160.6,10.1,161.2,10,163,10z"/>
			<path class="st0" d="M147.7,10c1.2,0,1.2,0,1.6,0.6c2.2,4.2,4.4,8.3,6.7,12.6c1.3-2.4,2.6-4.8,3.8-7.1c0.1,0,0.1,0,0.2,0
				c0.7,4.5,1.4,9.2,2.1,13.8c-1,0-1.1-0.2-1.2-0.9c-0.4-2.8-0.8-5.6-1.3-8.5c-0.1-0.4-0.2-0.8-0.2-1.5c-1.2,2.2-2.3,4.2-3.4,6.3
				C153.2,20.3,150.4,15.1,147.7,10z"/>
			<path class="st0" d="M147.9,16.4c2.4,4.4,4.8,9,7.2,13.5c-1.2,0-1.3-0.1-1.6-0.8c-1.5-2.9-3-5.8-4.6-8.6
				c-0.2-0.3-0.3-0.6-0.6-1.1c-0.3,1.8-0.6,3.4-0.8,4.9c-0.2,1-0.3,2-0.4,3c-0.1,0.7-0.4,0.9-1.2,0.6c0.6-3.8,1.2-7.6,1.8-11.5
				C147.8,16.5,147.8,16.5,147.9,16.4z"/>
		</g>
		<g>
			<path class="st0" d="M133.3,30c-5.4,0.1-10-4.5-10-10c-0.1-5.3,4.5-9.9,10-10c5.4-0.1,10,4.4,10.1,10
				C143.4,25.3,138.8,29.9,133.3,30z M133.3,29c5,0,8.9-3.9,9-9c0-4.9-4-8.9-9-9c-5,0-8.9,4-8.9,9.1C124.4,25,128.3,29,133.3,29z"/>
			<path class="st0" d="M133.4,11.7c4.6,0,7.9,3.4,7.9,8.2c0,4.4-3.6,8-8.1,8c-4.4,0-8.1-3.8-8-8.2
				C125.2,15.1,128.8,11.7,133.4,11.7z M133.3,12.7c-3.9,0-7.1,3.1-7.1,7c0,3.8,3.2,7,7,7c3.7,0.1,7-3.2,7-7.1
				C140.4,15.9,137.2,12.8,133.3,12.7z"/>
			<path class="st0" d="M139.4,19.8c0,3.5-2.7,6.1-6.2,6.1c-3.4,0-6.1-2.9-6.1-6.3c0-3.4,2.8-6.1,6.3-6.1
				C136.8,13.6,139.4,16.3,139.4,19.8z M138.4,19.8c0-2.9-2.2-5.2-5.1-5.2c-2.8,0-5.1,2.3-5.1,5.1c0,2.8,2.2,5.1,5.2,5.2
				C136.1,24.9,138.3,22.7,138.4,19.8z"/>
		</g>
		<g>
			<path class="st0" d="M109.4,10h14c0,0,0,3,0,4.6c-2.2,0-4.4,0-6.7,0c0,4.5,0,13.4,0,13.4h-1c0,0,0-9.5,0-14.3c2.2,0,6.7,0,6.7,0
				V11l-11.1,0l-0.9,0.4l0.9,0.4h10.2v1h-12.1L109.4,10z"/>
			<path class="st0" d="M113.7,14.6c-1.6,0-3,0-4.4,0c0-0.4,0-0.6,0-1c1.8,0,3.5,0,5.4,0c0,5,0,15.1,0,15.1h2.9c0,0,0-8.8,0-13.2
				c0.4,0,0.7,0,1,0c0,4.8,0,14.4,0,14.4h-4.9C113.7,30,113.7,19.8,113.7,14.6z"/>
		</g>
		<g>
			<path class="st0" d="M94.6,10h1v18.8h2.8c0,0,0-4.4,0-6.7c0.4,0,0.6-0.1,0.8-0.1c0.8,0,1.5,0,2.3,0c4.6,0,7.1-3.8,5.3-8.1
				c-0.7-1.6-2-2.6-3.6-2.7c-1.8-0.2-3.6,0-5.6,0c0,2.2,0,4.5,0,6.9c1.4,0,2.9,0.1,4.3,0c1-0.1,1.3-0.8,1.2-1.8
				c-0.1-0.9-0.6-1.2-1.5-1.3c-0.6,0-1.3,0-2.1,0c0,0.4,0,0.8,0,1.1c0,0.4,0,0.7,0,1.2c-0.4,0-0.6,0-1,0.1c0-1.2,0-2.2,0-3.4
				c1.1,0,2.2,0,3.2,0c1.5,0,2.3,0.9,2.4,2.3c0.1,1.6-0.7,2.8-2.2,2.8c-1.8,0.1-3.6,0-5.4,0c0-3,0-9.1,0-9.1s4.7,0,7,0.2
				c2.8,0.3,4.4,2.6,4.6,5.5c0.2,3.4-0.8,5.8-3.3,6.8c-1,0.4-2.1,0.5-3.2,0.6c-0.7,0.1-1.4,0-2.2,0c0,2.3,0,6.9,0,6.9h-4.9L94.6,10z
				"/>
			<path class="st0" d="M97.5,21.1c0,2.4,0,4.5,0,6.8C97.4,28,97,28.4,97,28.4s-0.4-0.4-0.5-0.6c0-2.5,0-5,0-7.7c0.9,0,1.7,0,2.6,0
				c0.8,0,1.6,0,2.5,0c3.3-0.1,4.1-2.2,3.4-4.9c-0.3-1.3-1.2-2.1-2.6-2.2c-1.3-0.1-2.6,0-3.9,0c0-0.4,0-0.7,0-1
				c0.1,0,0.2-0.1,0.3-0.1c1,0,1.9,0,2.9,0c2.8,0,4.4,1.6,4.5,4.4c0.1,2.8-1.4,4.6-4.2,4.7C100.6,21.2,99.1,21.1,97.5,21.1z"/>
		</g>
		<g>
			<path class="st0" d="M86.2,30h-5c0,0,0-6.4,0-9c0-0.5-0.2-1.1-0.5-1.6c-1.9-2.9-3.9-5.7-5.9-8.5c-0.2-0.3-0.6-1-0.6-1h1.2
				c0,0,4.4,6.3,6.4,9.2c0.3,0.4,0.5,1.1,0.5,1.6c0,2.6,0,8,0,8h2.9c0,0,0.2-3,0-4.5c-0.4-3.2,0.5-5.8,2.6-8.2
				c1.3-1.5,2.3-3.3,3.5-5c-0.6-0.3-1-0.1-1.4,0.4c-1.8,2.6-3.6,5.2-5.4,7.8c-0.2,0.3-0.3,0.8-0.3,1.2c0,2.1,0,7.5,0,7.5h-1
				c0,0,0-5.6,0-8.4c0-0.3,0.2-0.6,0.4-0.8c1.9-2.8,6.1-8.9,6.1-8.9h3.5c0,0-4.3,6.4-6.2,9c-0.6,0.8-0.8,1.6-0.8,2.6
				C86.2,24.3,86.2,30,86.2,30z"/>
			<path class="st0" d="M82.6,16.9c1.4-2.2,4.6-6.9,4.6-6.9h1.4c0,0-4,5.8-6,8.8c-2.1-3-6.1-8.8-6.1-8.8H80c0,0,2.1,2.8,2.9,3.9
				c0.5,0.7,0.5,0.7-0.2,1.4c-1.5-1.3-2-3.3-3.7-4.5c-0.1,0.1-0.4,0.2-0.5,0.3C79.8,13,81.2,14.9,82.6,16.9z"/>
		</g>
		<g>
			<path class="st0" d="M65.4,22.8c0,2.3,0,7.2,0,7.2h-4.9V10h1c0,0,0,12.5,0,18.8c1,0,1.9,0,2.8,0c0-2.4,0-4.8,0-7.3
				c0.8,0,1.6-0.1,2.3,0c0.3,0,0.6,0.4,0.7,0.7c1,1.9,2.1,3.8,3.1,5.8c0.3,0.6,0.7,0.9,1.4,0.8s1.4,0,2.3,0c-1.1-2-2.1-4-3.1-5.9
				c0.6-0.5,0.9-0.4,1.3,0.2c1,2,2.1,3.9,3.1,5.9c0.1,0.2,0.2,0.4,0.3,0.8c-1.8,0-3.5,0-5.2,0c-0.2,0-0.6-0.4-0.8-0.6
				c-1.1-2-2.2-4-3.2-6C66.5,22.7,66.2,22.5,65.4,22.8z"/>
			<path class="st0" d="M62.4,10c0,0,5.3,0,7.8,0.3c3.1,0.4,4.7,2.8,4.8,5.8c0,3.4-1.4,5.4-4.7,6.2c-0.1,0-0.2,0.1-0.5,0.2
				c0.5,1,1,1.9,1.5,2.8c0.5,0.9,1,1.9,1.5,2.9c-0.7,0.2-1.2,0.1-1.5-0.6c-1-2-2.1-3.9-3.2-5.9c0.5-0.1,1-0.2,1.4-0.2
				c2-0.4,3.6-1.4,4.1-3.4c0.6-2,0.4-3.9-1.2-5.4c-1-1-2.3-1.4-3.6-1.5c-1.5-0.1-3-0.1-4.5-0.2c-0.8,0-1,0.2-1,1c0,5,0,15.9,0,15.9
				l-0.5,0.4l-0.5-0.4c0,0,0-11.6,0-17.2C62.4,10.4,62.4,10,62.4,10z"/>
			<path class="st0" d="M64.4,11.8c1.7,0.1,3.4,0,5,0.3c2.3,0.3,3.6,2,3.6,4.3c0,2.4-1.2,3.7-3.6,4.1c-0.6,0.1-1.1,0.2-1.7,0.2
				c-1,0-2.1,0-3.2,0c0-0.3,0-0.6,0-0.9c0.2,0,0.3-0.1,0.4-0.1c1.4-0.1,2.9,0,4.4-0.2c1.9-0.2,2.8-1.4,2.8-3.2c0-1.8-1.1-3-2.9-3.2
				c-1-0.1-2-0.1-3-0.1c-0.3,0-0.5,0.4-0.8,0.6c0,0.1,0.1,0.2,0.2,0.4c0.5,0,1,0,1.6,0c0.7,0,1.5,0,2.2,0.2c1,0.2,1.7,1,1.8,1.9
				c0.1,1-0.4,1.8-1.4,2.3c-0.4,0.2-1,0.4-1.4,0.4c-1.2,0-2.4,0-3.6,0c0-0.9,0-1.8,0-2.7c0.3,0,0.6,0,0.9,0c0,0.6,0.1,1,0.1,1.8
				c1,0,2-0.1,3.1-0.2c0.7-0.1,1.4-0.4,1.4-1.3c0-0.9-0.7-1.2-1.4-1.2c-1.3,0-2.6,0-4,0C64.4,13.9,64.4,13,64.4,11.8z"/>
		</g>
		<g>
			<path class="st0" d="M55.7,15.1c0.2-0.2,0.4-0.4,0.5-0.6c-2.4-2.1-6.3-2-8.8,0.1c-2.7,2.3-3.3,6.1-1.5,9.1c2,3.3,5.4,4.2,9.8,2.4
				c0.2,0.2,0.3,0.5,0.5,0.7c-3,2.4-7.8,1.6-10.5-1.6c-2.7-3.3-2.3-8.3,0.9-11.1c3.2-2.9,8.2-2.8,11.1,0.4c-0.6,0.7-1.2,1.4-1.9,2.2
				c-1.4-1.3-3-2-4.9-1.5c-1,0.3-2,0.9-2.8,1.7c-1.6,1.8-1.6,4.4,0,6.2c1.9,2.4,3.9,2.4,8.2,0.2c0.9,1.3,1.8,2.6,2.6,3.9
				c-4.6,4-10.4,3.6-14.2-0.2c-4.1-4.2-3.8-10.7,0.5-14.5c4-3.5,10.6-3.2,13.7,0.6c-0.2,0.2-0.4,0.4-0.7,0.6c-2.2-2.1-4.7-3-7.6-2.6
				c-2.2,0.3-4.1,1.3-5.6,3c-3,3.5-2.9,8.6,0.2,12c3.2,3.4,8.2,3.8,12.2,0.9c-0.5-0.7-1-1.5-1.6-2.3c-1.9,1.2-3.8,1.9-6,1
				c-1.3-0.5-2.4-1.4-3.1-2.6c-1.4-2.3-1.2-5.2,0.7-7.2C49.6,13.6,52.3,13.4,55.7,15.1z"/>
		</g>
	</g>
	
		<linearGradient id="sign_00000072277567819943787350000006098285398868726192_" gradientUnits="userSpaceOnUse" x1="0" y1="686" x2="32.7999" y2="686" gradientTransform="matrix(1 0 0 1 0 -666)">
		<stop  offset="3.513558e-04" style="stop-color:#8600D4"/>
		<stop  offset="0.1328" style="stop-color:#9009C5"/>
		<stop  offset="0.3876" style="stop-color:#AC229E"/>
		<stop  offset="0.7353" style="stop-color:#D8495F"/>
		<stop  offset="0.9996" style="stop-color:#FC692B"/>
	</linearGradient>
	<path id="sign" style="fill:url(#sign_00000072277567819943787350000006098285398868726192_);" d="M18.1,40v-3.3h-2V40h-2.2v-3.6
		c0,0-0.1,0-0.5-0.1c-4.3-1-7.7-3.3-10.2-6.9c-0.4-0.6-0.8-0.9-1.4-1.1C0.7,28,0,26.9,0,25.8c0-1.2,0.8-2.2,1.9-2.5
		c1.1-0.3,2.3,0.1,2.9,1c0.7,1,0.7,2.2-0.1,3.1c-0.4,0.4-0.3,0.7,0,1.1c5.2,7.6,16.2,8.7,22.6,2.2c1.4-1.2,2.8-3.8,2.8-3.8h-3.3
		c0,0-0.2,0.2-0.4,0.4c-2.8,3.5-6.3,5.1-10.7,4.7c-3.6-0.3-6.5-2.1-8.7-5.1c3.2-2.3,6.4-4.6,9.6-6.9c-3.2-2.3-6.4-4.6-9.6-6.9
		c1-1.4,2.2-2.6,3.7-3.5c5.4-3.1,11.8-1.9,15.7,3c0.3,0.3,0.4,0.5,0.4,0.5h3.3c0,0-0.2-0.5-0.3-0.8c-3.4-5.9-10.6-8.8-17.1-6.8
		c-3.4,1-6.1,3-8.1,5.9c-0.3,0.4-0.3,0.6,0,1c0.8,0.9,0.8,2.2,0.1,3.2c-0.7,1-1.9,1.4-3,1C0.7,16.3,0,15.2,0,14c0-1.3,0.8-2.3,2-2.5
		c0.4-0.1,0.7-0.3,0.9-0.6c2.5-3.8,5.9-6.2,10.4-7.2c0.2,0,0.6-0.1,0.6-0.1V0h2.2v3.2h2V0h2.2v3.6c0,0,0.1,0,0.5,0.1
		c5.9,1.5,9.8,5.2,12,10.9c0,0,0.1,0.3,0.1,0.3H26c0,0-0.2-0.2-0.5-0.5c-2.4-3.5-5.7-5-9.9-4.6c-0.3,0-0.6,0.1-0.8,0.2
		c0,0,0,0.1-0.1,0.2c4.6,3.3,9.2,6.6,13.9,9.9c-4.7,3.4-9.3,6.6-14,10c0.3,0.1,0.4,0.2,0.6,0.2c4.1,0.5,7.4-0.8,10-4.1
		c0.2-0.2,0.3-0.5,0.5-0.8c0.1-0.1,0.2-0.3,0.4-0.3h6.7c0,0,0,0.2-0.1,0.3c-2.1,5.6-5.9,9.3-11.7,10.9c-0.1,0-0.8,0.1-0.8,0.1v3.7
		L18.1,40z M25.6,20c-0.2-0.2-0.4-0.3-0.6-0.4c-1.8-1.2-3.5-2.5-5.2-3.8c-2.2-1.6-4.5-3.2-6.7-4.8c-0.2-0.1-0.5-0.3-0.6-0.2
		c-1,0.4-2,1.1-2.8,2c3.4,2.4,6.7,4.8,10.1,7.2c-3.4,2.4-6.7,4.8-10.2,7.3c0.8,0.6,1.5,1.1,2.2,1.6c0.6,0.4,1,0.4,1.6,0
		c3.9-2.8,7.8-5.6,11.7-8.4C25.2,20.3,25.4,20.2,25.6,20z M3.6,25.8c0-0.5-0.4-0.9-0.9-0.9s-0.9,0.4-0.9,0.9c0,0.5,0.4,1,0.9,1
		C3.2,26.7,3.6,26.3,3.6,25.8z M3.6,14.1c0-0.5-0.4-0.9-0.9-0.9c-0.5,0-0.9,0.4-0.9,0.8c0,0.5,0.4,1,0.9,1C3.1,15,3.5,14.6,3.6,14.1
		z"/>
</g>
</svg>
