<?xml version="1.0" encoding="utf-8"?>
<!-- Generator: Adobe Illustrator 25.4.1, SVG Export Plug-In . SVG Version: 6.00 Build 0)  -->
<svg version="1.1" id="logo" xmlns="http://www.w3.org/2000/svg" xmlns:xlink="http://www.w3.org/1999/xlink" x="0px" y="0px"
	 viewBox="0 0 550 100" style="enable-background:new 0 0 550 100;" xml:space="preserve">
<style type="text/css">
	.st0{fill:url(#sign_00000144316943942479302590000013642029448359941006_);}
</style>
<g id="logo_00000107553754399359322680000007038860083786954399_">
	<g id="title">
		<g>
			<path d="M550,50.1c0.1,13.4-11.3,24.8-25.1,24.9c-13.3,0.1-24.6-11.3-24.8-24.9c-0.1-13.5,11.2-24.9,25-25
				C538.7,24.9,549.9,36.1,550,50.1z M547.5,49.9c0.1-12.3-9.8-22.3-22.4-22.4c-12.3-0.1-22.2,9.9-22.4,22.5
				c-0.1,12.3,10,22.2,22.5,22.3C537.6,72.5,547.4,62.7,547.5,49.9z"/>
			<path d="M525.5,29.9c11.5,0,19.8,8.6,19.6,20.4c-0.1,11.1-9,19.8-20.2,19.9c-10.9,0-20.1-9.3-20.1-20.4
				C504.8,38.6,513.9,29.9,525.5,29.9z M507.6,49.8c-0.1,9.7,7.7,17.6,17.6,17.8c9.4,0.2,17.3-7.9,17.5-17.7
				c0.2-9.5-7.5-17.4-17.2-17.5C515.5,32.3,507.7,39.9,507.6,49.8z"/>
			<path d="M524.9,65.5c-8.4,0-15.3-7.1-15.3-15.7s7-15.4,15.8-15.3c8.4,0.1,15,7,14.9,15.6C540.4,58.9,533.6,65.6,524.9,65.5z
				 M524.9,62.8c7,0.2,12.8-5.4,13-12.6c0.2-7-5.4-12.8-12.5-13.1c-6.8-0.2-12.9,5.6-13.1,12.5C511.9,56.7,517.6,62.6,524.9,62.8z"
				/>
		</g>
		<g>
			<path d="M467.9,29.5c0,0,18.4,0,27.6,0c0,0.9,0,1.6,0,2.5c-10,0-30.1,0-30.1,0v-7h35.1c0,0,0,7.5,0,11.6c-5.4,0-10.9,0-16.8,0
				c0,11.3,0,22.3,0,33.5c-1,0-1.7,0-2.6,0c0-11.9,0-23.8,0-35.8c5.6,0,11.1,0,16.7,0c0-2.3,0-6.7,0-6.7l-29.9-0.2L467.9,29.5z"/>
			<path d="M488.4,75h-12.1c0,0,0-25.4,0-38.2c-3.8,0-7.3,0-10.9,0c0-1,0-1.7,0-2.5c4.4,0,8.7,0,13.3,0c0,12.5,0,37.7,0,37.7h7.1
				l0.1-30.8l1.3-2.3l1.3,2.4L488.4,75z"/>
		</g>
		<g>
			<path d="M439.9,75c-13.4,0.1-24.8-11.4-24.9-25.2c-0.1-13.3,11.4-24.7,25-24.8c13.5-0.1,24.8,11.2,25,25
				C465.1,63.5,453.6,74.9,439.9,75z M440.1,72.4c12.3,0.1,22.2-9.9,22.3-22.5c0.1-12.3-10-22.3-22.6-22.4
				c-12.3-0.1-22.1,9.9-22.3,22.6C417.5,62.5,427.5,72.4,440.1,72.4z"/>
			<path d="M440.2,29.9c11.6-0.1,19.9,8.3,19.9,20.2c0,11.2-9,20.1-20.3,20.1c-10.9,0-20.1-9.3-20.1-20.4
				C419.7,38.6,428.6,29.9,440.2,29.9z M440,32.4c-9.7-0.1-17.5,7.6-17.7,17.4c-0.1,9.5,7.9,17.7,17.7,17.8
				c9.4,0.1,17.4-8,17.5-17.7S449.9,32.5,440,32.4z"/>
			<path d="M455.2,50.2c0,8.7-6.6,15.4-15.4,15.4c-8.4,0-15.4-7.1-15.4-15.6c0-8.4,6.9-15.3,15.6-15.4
				C448.5,34.4,455.1,41.2,455.2,50.2z M452.6,50.3c0.1-7.2-5.5-13-12.7-13.1C433,37,427.2,42.9,427,49.9
				c-0.1,7.1,5.6,12.8,12.9,12.9C446.9,62.9,452.5,57.3,452.6,50.3z"/>
		</g>
		<g>
			<path d="M389.9,68.7c2.4-4.5,4.6-8.6,6.9-13.1c0.9,2.2,1,3.8-0.1,5.7c-2.3,4.1-4.4,8.3-6.8,12.9c-7.2-13.7-14.3-27-21.4-40.3
				c-0.2,0-0.4,0-0.6,0C366,46.4,362,72.1,362,72.1l7.3,0.1c0,0,1.6-10.9,2.9-15.5c0.5,1.4,1.4,2.9,1.3,4.2
				c-0.4,4.5-2.1,13.9-2.1,13.9h-12.5c0,0,5.1-33,7.5-49.2c0.2-0.1,0.4-0.1,0.5-0.2C374.6,39.8,382.2,54.2,389.9,68.7z"/>
			<path d="M407.6,25c2.5,16.3,7.6,50.1,7.6,50.1h-7.6c0,0-1.6-9.9-2.3-14.8c-1.1-7.2-2.3-14.5-3.2-21.7c-0.2-1.6,0.4-3.4,0.6-5.1
				c0.4,0,0.7,0,1.1,0c0.4,2.5,0.9,5.1,1.3,7.6c1.5,9.8,4.7,30.8,4.7,30.8h2.3c0,0-2.1-14-3.1-21c-1.1-7.2-3.4-21.7-3.4-21.7
				l-0.9-1.8l-1.7,1.4c0,0-7.6,14.2-11.4,21.3c-0.4,0.8-0.9,1.5-1.3,2.3c-1.6-1.4-1.5-2.6-0.6-4.3c3.5-6.4,7.1-12.8,10.2-19.4
				C401.4,25.3,403.1,25,407.6,25z"/>
			<path d="M369.3,25c2.9,0,3.1,0.1,3.9,1.6c5.4,10.4,10.9,20.7,16.7,31.5c3.3-6.1,6.5-11.9,9.6-17.7c0.2,0,0.3,0.1,0.5,0.1
				c1.7,11.3,3.6,23.1,5.3,34.4c-2.5,0-2.8-0.4-3-2.2c-1-7.1-2.1-14.1-3.2-21.2c-0.2-1-0.4-2.1-0.6-3.7c-3,5.5-5.7,10.4-8.6,15.8
				C382.9,50.7,376.1,37.8,369.3,25z"/>
			<path d="M369.7,41.1c5.9,11,12.1,22.6,18,33.8c-3,0-3.2-0.3-4.1-1.9c-3.8-7.2-7.6-14.4-11.4-21.6c-0.4-0.7-0.8-1.4-1.6-2.8
				c-0.7,4.5-1.4,8.4-2,12.3c-0.4,2.5-0.8,4.9-1.1,7.4c-0.2,1.7-1,2.3-2.9,1.6c1.5-9.6,3-19.1,4.4-28.7
				C369.4,41.2,369.5,41.2,369.7,41.1z"/>
		</g>
		<g>
			<path d="M333.2,75c-13.4,0.2-24.9-11.2-25.1-25c-0.2-13.2,11.3-24.8,24.9-25c13.6-0.2,24.9,11,25.2,24.9
				C358.5,63.3,347.1,74.8,333.2,75z M333.3,72.4c12.4,0.1,22.3-9.8,22.4-22.5c0.1-12.2-10-22.3-22.5-22.4
				c-12.4-0.1-22.3,10-22.3,22.8C310.9,62.6,320.8,72.4,333.3,72.4z"/>
			<path d="M333.6,29.3c11.5,0,19.7,8.5,19.7,20.4c0,11-9,19.9-20.2,19.9c-11,0-20.2-9.4-20.1-20.6C313,37.8,322,29.3,333.6,29.3z
				 M333.3,31.8c-9.8-0.1-17.7,7.7-17.7,17.6c0,9.5,7.9,17.4,17.6,17.6c9.3,0.2,17.4-8,17.5-17.7C350.9,39.7,343.1,31.9,333.3,31.8z
				"/>
			<path d="M348.4,49.6c0,8.7-6.7,15.3-15.5,15.3c-8.4-0.1-15.3-7.3-15.3-15.7c0.1-8.5,7-15.3,15.7-15.3
				C341.9,33.9,348.4,40.7,348.4,49.6z M345.9,49.5c0.1-7.2-5.6-13-12.7-13.1c-6.9,0-12.7,5.8-12.8,12.8
				c-0.1,7.1,5.6,12.8,12.9,12.9C340.2,62.3,345.8,56.7,345.9,49.5z"/>
		</g>
		<g>
			<path d="M273.4,25h35.1c0,0,0,7.6,0,11.6c-5.5,0-11,0-16.8,0c0,11.3,0,33.4,0,33.4h-2.5c0,0,0-23.7,0-35.8c5.5,0,16.7,0,16.7,0
				v-6.8l-27.8-0.1l-2.2,1.1l2.3,1.1h25.6v2.4h-30.3L273.4,25z"/>
			<path d="M284.3,36.6c-3.9,0-7.4,0-11,0c0-0.9,0-1.6,0-2.4c4.5,0,8.8,0,13.5,0c0,12.6,0,37.8,0,37.8h7.2c0,0,0-22,0-33
				c1,0,1.7,0,2.5,0c0,11.9,0,35.9,0,35.9h-12.2C284.3,75,284.3,49.5,284.3,36.6z"/>
		</g>
		<g>
			<path d="M236.5,25h2.4v47.1h6.9c0,0,0-11.1,0-16.7c0.9-0.1,1.5-0.3,2.1-0.3c1.9,0,3.8,0,5.7,0c11.5-0.1,17.7-9.6,13.2-20.3
				c-1.7-4.1-4.9-6.4-9.1-6.8c-4.5-0.4-9.1-0.1-13.9-0.1c0,5.6,0,11.3,0,17.3c3.6,0,7.2,0.2,10.8-0.1c2.4-0.2,3.3-1.9,3.1-4.5
				c-0.2-2.3-1.6-3.1-3.7-3.2c-1.6,0-3.3,0-5.3,0c0,1,0,1.9,0,2.8c0,0.9,0,1.8,0,2.9c-0.9,0.1-1.6,0.1-2.5,0.2c0-2.9,0-5.5,0-8.4
				c2.8,0,5.4-0.1,8.1,0c3.7,0.1,5.7,2.2,5.9,5.7c0.2,4-1.7,6.9-5.4,7.1c-4.4,0.3-8.9,0.1-13.5,0.1c0-7.6,0-22.7,0-22.7
				s11.8-0.1,17.4,0.5c7.1,0.7,11.1,6.5,11.5,13.7c0.6,8.5-2.1,14.4-8.2,16.9c-2.5,1-5.3,1.2-8,1.6c-1.7,0.2-3.5,0-5.5,0
				c0,5.7,0,17.3,0,17.3h-12.2L236.5,25z"/>
			<path d="M243.7,52.7c0,6.1,0,11.3,0,17c-0.2,0.2-1.2,1.2-1.2,1.2s-1.1-0.9-1.2-1.4c-0.1-6.3-0.1-12.6-0.1-19.2c2.3,0,4.3,0,6.4,0
				c2.1,0,4.1,0,6.2,0c8.3-0.2,10.2-5.6,8.6-12.2c-0.7-3.2-3-5.2-6.4-5.4c-3.2-0.2-6.4,0-9.8,0c0-1.1,0-1.8,0-2.5
				c0.3-0.1,0.5-0.2,0.8-0.2c2.4,0,4.8,0,7.2,0c7.1,0,11.1,3.9,11.3,11.1c0.2,7.1-3.6,11.4-10.6,11.8
				C251.4,52.9,247.7,52.7,243.7,52.7z"/>
		</g>
		<g>
			<path d="M215.5,75h-12.6c0,0,0.1-15.9-0.1-22.4c0-1.3-0.5-2.8-1.2-3.9c-4.8-7.2-9.8-14.2-14.7-21.3c-0.5-0.7-1.6-2.4-1.6-2.4h3.1
				c0,0,11.1,15.7,15.9,22.9c0.8,1.1,1.2,2.7,1.2,4.1c0.1,6.6,0.1,20.1,0.1,20.1h7.3c0,0,0.4-7.5-0.1-11.2
				c-0.9-7.9,1.2-14.5,6.4-20.6c3.3-3.8,5.8-8.2,8.8-12.5c-1.6-0.8-2.5-0.3-3.4,1c-4.4,6.5-9,13-13.4,19.6c-0.6,0.8-0.8,2-0.8,3
				c-0.1,5.3,0,18.8,0,18.8h-2.6c0,0,0-14.1,0-21c0-0.7,0.6-1.4,1-2C213.5,40.2,224,25,224,25h8.8c0,0-10.8,15.9-15.6,22.5
				c-1.5,2-2,4-2,6.4C215.6,60.8,215.5,75,215.5,75z"/>
			<path d="M206.4,42.3C210,36.9,218,25,218,25h3.4c0,0-9.9,14.5-14.9,21.9c-5.2-7.4-15.3-21.9-15.3-21.9h8.7c0,0,5.3,7,7.3,9.8
				c1.2,1.7,1.2,1.7-0.4,3.4c-3.8-3.2-5-8.2-9.3-11.2c-0.3,0.2-0.9,0.5-1.2,0.7C199.6,32.5,202.9,37.3,206.4,42.3z"/>
		</g>
		<g>
			<path d="M163.6,57c0,5.8,0,18.1,0,18.1h-12.2V25h2.4c0,0,0,31.3,0,47.1c2.5,0,4.7,0,7.1,0c0-6,0-11.9,0-18.2c2.1,0,4-0.2,5.8,0.1
				c0.7,0.1,1.4,1,1.8,1.7c2.6,4.8,5.3,9.6,7.8,14.5c0.8,1.6,1.7,2.2,3.5,2.1c1.8-0.1,3.6,0,5.8,0c-2.7-5.1-5.2-9.9-7.7-14.7
				c1.5-1.3,2.3-1.1,3.2,0.6c2.5,5,5.2,9.8,7.8,14.7c0.3,0.5,0.4,1,0.8,1.9c-4.5,0-8.7,0.1-12.9-0.1c-0.6,0-1.5-0.9-1.9-1.6
				c-2.7-4.9-5.4-9.9-8-14.9C166.2,56.8,165.4,56.2,163.6,57z"/>
			<path d="M156,25c0,0,13.2,0,19.5,0.8c7.8,1,11.8,6.9,11.9,14.4c0.1,8.6-3.6,13.5-11.7,15.6c-0.3,0.1-0.6,0.2-1.3,0.4
				c1.3,2.4,2.5,4.7,3.7,7c1.2,2.3,2.5,4.7,3.8,7.2c-1.8,0.6-2.9,0.3-3.7-1.4c-2.5-4.9-5.2-9.7-7.9-14.8c1.3-0.2,2.4-0.4,3.5-0.6
				c5-1,8.9-3.4,10.3-8.6c1.4-5,0.9-9.8-3-13.6c-2.5-2.4-5.7-3.4-9-3.7c-3.7-0.3-7.5-0.2-11.2-0.4c-1.9-0.1-2.4,0.5-2.4,2.4
				c0.1,12.6,0,39.7,0,39.7l-1.3,1.1l-1.3-1c0,0,0-28.9,0-42.9C156,26,156,25,156,25z"/>
			<path d="M161.1,29.6c4.3,0.2,8.4,0.1,12.4,0.7c5.8,0.8,9,4.9,9,10.7c0,5.9-3,9.3-9,10.3c-1.4,0.2-2.8,0.4-4.2,0.4
				c-2.6,0.1-5.3,0-8.1,0c0-0.8-0.1-1.5-0.1-2.3c0.5-0.1,0.8-0.2,1.1-0.2c3.6-0.2,7.3-0.1,10.9-0.5c4.7-0.6,6.9-3.5,6.9-7.9
				c-0.1-4.4-2.7-7.4-7.3-8c-2.5-0.3-5-0.3-7.4-0.3c-0.7,0-1.3,0.9-1.9,1.4c0.1,0.3,0.3,0.6,0.4,0.9c1.3,0,2.6-0.1,3.9,0
				c1.8,0.1,3.7,0.1,5.4,0.5c2.6,0.5,4.2,2.4,4.4,4.8c0.2,2.6-1,4.6-3.5,5.7c-1.1,0.5-2.4,0.9-3.6,0.9c-3,0.1-6,0-9.1,0
				c0-2.2,0-4.4,0-6.7c0.7,0,1.4,0,2.3,0c0.1,1.4,0.2,2.6,0.3,4.4c2.6-0.1,5.1-0.2,7.7-0.5c1.8-0.2,3.4-1.1,3.4-3.3s-1.8-2.9-3.6-3
				c-3.3-0.1-6.6,0-10.1,0C161.1,34.8,161.1,32.4,161.1,29.6z"/>
		</g>
		<g>
			<path d="M139.3,37.7c0.5-0.6,0.9-1.1,1.3-1.6c-6.1-5.2-15.7-5-21.9,0.3c-6.7,5.8-8.2,15.3-3.7,22.7c5.1,8.3,13.6,10.4,24.4,5.9
				c0.4,0.6,0.8,1.2,1.2,1.7c-7.5,5.9-19.6,4-26.3-4.1c-6.8-8.3-5.8-20.7,2.2-27.8c8.1-7.2,20.5-6.9,27.8,1c-1.5,1.8-3,3.6-4.7,5.6
				c-3.6-3.2-7.6-5.1-12.2-3.7c-2.5,0.8-5.1,2.3-6.9,4.2c-4.1,4.4-3.9,10.9-0.1,15.6c4.8,5.9,9.8,6.1,20.6,0.4
				c2.2,3.3,4.4,6.5,6.6,9.8c-11.5,10.1-26.1,9-35.4-0.6c-10.2-10.5-9.5-26.7,1.3-36.2c9.9-8.7,26.5-8.1,34.3,1.6
				c-0.5,0.5-1,1-1.7,1.6c-5.5-5.3-11.8-7.5-19.1-6.6c-5.6,0.7-10.3,3.3-14,7.6c-7.6,8.7-7.3,21.4,0.6,29.9
				c7.9,8.6,20.6,9.5,30.4,2.2c-1.2-1.8-2.5-3.7-3.9-5.8c-4.7,3-9.6,4.7-15.1,2.6c-3.3-1.3-5.9-3.4-7.8-6.4
				c-3.6-5.7-2.9-12.9,1.7-18.1C124,34.1,130.8,33.4,139.3,37.7z"/>
		</g>
	</g>
	
		<linearGradient id="sign_00000106131926061490946850000006164929730016567222_" gradientUnits="userSpaceOnUse" x1="1.818989e-12" y1="52" x2="81.9999" y2="52" gradientTransform="matrix(1 0 0 -1 0 102)">
		<stop  offset="3.513558e-04" style="stop-color:#8600D4"/>
		<stop  offset="0.1328" style="stop-color:#9009C5"/>
		<stop  offset="0.3876" style="stop-color:#AC229E"/>
		<stop  offset="0.7353" style="stop-color:#D8495F"/>
		<stop  offset="0.9996" style="stop-color:#FC692B"/>
	</linearGradient>
	<path id="sign" style="fill:url(#sign_00000106131926061490946850000006164929730016567222_);" d="M45.2,100v-8.3h-4.9v8.3h-5.5
		v-8.9c0,0-0.2,0-1.3-0.3C22.8,88.4,14.2,82.6,8,73.5c-0.9-1.4-1.9-2.2-3.6-2.7C1.7,70.1,0,67.3,0,64.5c0.1-2.9,2-5.4,4.8-6.2
		c2.7-0.8,5.7,0.3,7.3,2.6c1.7,2.4,1.7,5.6-0.2,7.8c-0.9,1.1-0.7,1.7,0,2.7c12.9,19,40.4,21.7,56.5,5.4c3.6-3.1,7.1-9.6,7.1-9.6
		h-8.2c0,0-0.6,0.6-0.9,1C59.5,76.9,50.6,80.9,39.6,80c-9.1-0.8-16.2-5.3-21.8-12.8c8-5.7,15.9-11.4,24.1-17.2
		c-8.1-5.8-16-11.5-24.1-17.2c2.6-3.6,5.6-6.6,9.3-8.7c13.5-7.8,29.6-4.7,39.2,7.6c0.7,0.8,1,1.2,1,1.2h8.2c0,0-0.5-1.3-0.8-1.9
		C66.2,16.2,48.1,9,32,13.9c-8.5,2.6-15.2,7.5-20.3,14.8c-0.7,0.9-0.7,1.5,0.1,2.5c2,2.3,2,5.5,0.3,8c-1.7,2.4-4.8,3.4-7.6,2.5
		c-2.8-1-4.6-3.7-4.4-6.6c0.1-3.2,2.1-5.7,5.1-6.3c1-0.2,1.7-0.7,2.2-1.6c6.2-9.5,14.8-15.6,25.9-18.1c0.4-0.1,1.5-0.2,1.5-0.2V0
		h5.5v8h4.9V0h5.5v8.9c0,0,0.2,0,1.3,0.3c14.7,3.7,24.5,13,29.9,27.2c0.1,0.1,0.2,0.7,0.2,0.7h-17c0,0-0.5-0.5-1.2-1.3
		c-6-8.8-14.3-12.5-24.7-11.6c-0.7,0.1-1.4,0.2-2,0.4c-0.1,0.1-0.1,0.3-0.2,0.4c11.5,8.2,23,16.4,34.7,24.8
		c-11.7,8.4-23.2,16.6-35,25c0.7,0.2,1.1,0.4,1.5,0.5c10.2,1.3,18.6-2,24.9-10.2c0.5-0.6,0.8-1.3,1.3-1.9c0.3-0.3,0.6-0.8,1-0.8
		h16.7c0,0-0.1,0.6-0.2,0.7c-5.2,14-14.8,23.3-29.3,27.2c-0.3,0.1-1.9,0.3-1.9,0.3v9.2L45.2,100z M63.9,49.9c-0.6-0.5-1-0.8-1.4-1.1
		c-4.4-3.1-8.8-6.3-13.1-9.4c-5.6-4-11.2-8-16.8-12c-0.5-0.3-1.2-0.8-1.6-0.6c-2.6,1.1-4.9,2.8-7,5c8.5,6.1,16.7,12,25.2,18
		c-8.5,6.1-16.8,12-25.4,18.2c2,1.5,3.7,2.7,5.4,4c1.4,1.1,2.6,1,4.1-0.1c9.7-7,19.5-14,29.3-20.9C63,50.8,63.4,50.4,63.9,49.9z
		 M8.9,64.6c0-1.2-1-2.3-2.2-2.3s-2.2,1-2.3,2.2c0,1.3,1,2.4,2.3,2.4C7.9,66.8,8.9,65.8,8.9,64.6z M8.9,35.2C8.9,34,8,33,6.7,32.9
		c-1.2,0-2.3,0.9-2.3,2.1c0,1.3,1,2.4,2.3,2.4C7.8,37.5,8.8,36.5,8.9,35.2z"/>
</g>
</svg>
